{"accessors":[{"bufferView":1,"componentType":5126,"count":220,"max":[0.7726699709892273,0.5,0],"min":[0.038830000907182693,-0.5,-0.09035000205039978],"type":"VEC3"},{"bufferView":1,"byteOffset":2640,"componentType":5126,"count":220,"max":[0.9999991655349731,1,1],"min":[-1,-1,-1],"type":"VEC3"},{"bufferView":0,"componentType":5125,"count":402,"type":"SCALAR"},{"bufferView":1,"byteOffset":5280,"componentType":5126,"count":68,"max":[0.7576799988746643,0.5,-0.011490000411868095],"min":[0.04944000020623207,-0.5,-0.07886999845504761],"type":"VEC3"},{"bufferView":1,"byteOffset":6096,"componentType":5126,"count":68,"max":[1,1,0.0033400151878595352],"min":[0,-1,0],"type":"VEC3"},{"bufferView":0,"byteOffset":1608,"componentType":5125,"count":210,"type":"SCALAR"}],"asset":{"extras":{"author":"Eric Fan (https://sketchfab.com/ericfan1992)","license":"CC-BY-4.0 (http://creativecommons.org/licenses/by/4.0/)","source":"https://sketchfab.com/3d-models/book-fc1b43e332d147edb7dca8f89cffa4d7","title":"Book"},"generator":"Sketchfab-12.66.0","version":"2.0"},"bufferViews":[{"buffer":0,"byteLength":2448,"name":"floatBufferViews","target":34963},{"buffer":0,"byteLength":6912,"byteOffset":2448,"byteStride":12,"name":"floatBufferViews","target":34962}],"buffers":[{"byteLength":9360,"uri":"data:application/octet-stream;base64,"}],"materials":[{"doubleSided":true,"name":"Architexture","pbrMetallicRoughness":{"baseColorFactor":[0.800000011920929,0.800000011920929,0.800000011920929,1],"metallicFactor":0,"roughnessFactor":0.6}},{"doubleSided":true,"name":"Bookpage","pbrMetallicRoughness":{"metallicFactor":0,"roughnessFactor":0.6}}],"meshes":[{"name":"Architexture_0","primitives":[{"attributes":{"NORMAL":1,"POSITION":0},"indices":2,"material":0,"mode":4}]},{"name":"Architexture_1","primitives":[{"attributes":{"NORMAL":4,"POSITION":3},"indices":5,"material":1,"mode":4}]}],"nodes":[{"children":[1],"matrix":[1,0,0,0,0,2.220446049250313e-16,-1,0,0,1,2.220446049250313e-16,0,0,0,0,1],"name":"Sketchfab_model"},{"children":[2],"name":"Root"},{"children":[3,4],"name":"Architexture"},{"mesh":0,"name":"Architexture_0"},{"mesh":1,"name":"Architexture_1"}],"scene":0,"scenes":[{"name":"Sketchfab_Scene","nodes":[0]}]}